<?xml version="1.0" standalone="no"?><!DOCTYPE svg PUBLIC "-//W3C//DTD SVG 1.1//EN" "http://www.w3.org/Graphics/SVG/1.1/DTD/svg11.dtd"><svg t="1753078533576" class="icon" viewBox="0 0 1024 1024" version="1.1" xmlns="http://www.w3.org/2000/svg" p-id="11993" xmlns:xlink="http://www.w3.org/1999/xlink" width="200" height="200"><path d="M961.812525 449.301955c-32.676506-79.138412-18.891105-130.195453-18.891105-130.195453 5.105704-19.912246-0.51057-40.845632-13.785401-55.652174-15.317112-13.785401-36.250499-18.891105-55.652174-13.785401-54.631033 19.912246-99.561229 59.736737-125.600319 111.814918v4.595134c-32.676506-135.301157 9.190267-270.091743 13.785401-283.877144 4.595134-18.380535 4.595134-37.271639-9.190267-51.05704s-32.676506-23.486239-51.057041-18.380535c-9.190267 0-228.22497 28.081372-316.553649 274.686877-16.848823 53.099322-27.570802 107.730355-32.676506 162.871958C343.001197 408.456322 333.300359 357.399282 333.300359 329.31791c-4.595134-23.486239-18.891105-41.866773-41.866773-46.972477s-46.972477 0-55.652174 18.891105c-9.700838 5.105704-102.624651 126.11089-121.005185 247.116075-17.869964 104.666933 7.658556 212.397288 70.458715 298.173115 69.948145 92.923813 177.16793 153.681691 302.768249 172.572796 27.570802 4.084563 55.652174 5.616274 83.733546 4.595134 218.524132 0 391.096929-135.301157 423.773435-344.635022 8.169126-94.966095 3.063422-145.512565-33.697647-229.756681z" fill="#D3120D" p-id="11994"></path><path d="M915.861189 439.090546c-32.676506-79.138412-18.891105-130.195453-18.891105-130.195452 5.105704-19.912246-0.51057-40.845632-13.785401-55.652174-15.317112-13.785401-36.250499-18.891105-55.652174-13.785401-54.631033 19.912246-99.561229 59.736737-125.600319 111.814918v4.595134c-32.676506-135.301157 9.190267-270.091743 13.785401-283.877144 4.595134-18.380535 4.595134-37.271639-9.190268-51.05704s-32.676506-23.486239-51.05704-18.380535c-9.190267 0-228.22497 28.081372-316.55365 274.686877-16.848823 53.099322-27.570802 107.730355-32.676505 162.871958-9.700838-42.887914-18.891105-94.455525-18.891105-122.026326-4.595134-23.486239-18.891105-41.866773-41.866773-46.972477-23.486239-5.105704-46.972477 0-55.652174 18.891105-9.700838 5.105704-102.624651 126.11089-121.005186 247.116075-17.869964 104.666933 7.658556 212.397288 70.458716 298.173115 69.948145 92.923813 177.16793 153.681691 302.768249 172.572796 27.570802 4.084563 55.652174 5.616274 83.733546 4.595134 218.524132 0 391.096929-135.301157 423.773434-344.635022 8.169126-93.944954 3.573993-144.491424-33.697646-228.735541z" fill="#FFD633" p-id="11995"></path><path d="M418.055046 512.102114l-46.972477 219.034703H303.176705l18.891105-89.349821H248.545672l-18.891105 89.349821H161.238133l46.972477-219.034703h67.905864l-16.338253 77.606701H333.300359l17.359394-77.606701h67.395293z m145.001994-3.573993c33.187076 0 58.205026 9.190267 74.032709 27.060232 15.827682 18.380535 23.996809 41.866773 23.486238 65.863582 0 11.743119-1.531711 22.975668-4.595133 34.208217-3.063422 14.295971-8.679697 27.570802-16.338253 40.335061-8.169126 13.785401-19.401675 25.52852-32.165936 35.229358-11.232549 8.679697-24.507379 15.317112-38.29278 19.401676-12.76426 3.063422-25.52852 5.105704-38.80335 4.595133-31.144795 0-55.652174-8.169126-73.011568-23.996809-17.359394-15.827682-26.549661-38.29278-26.549661-66.884723 0-14.806542 2.042282-29.613083 6.637415-43.909054s10.721978-28.081372 19.401675-40.335062c8.169126-12.25369 18.891105-22.975668 31.144795-31.655365 11.232549-7.658556 23.996809-13.27483 37.271639-16.338253 12.76426-2.552852 25.01795-3.573993 37.78221-3.573993z m-29.102513 176.65736c12.76426 0 24.507379-5.616274 32.676506-14.806542 9.700838-10.721978 16.338253-23.486239 19.912246-37.271639 3.573993-10.211408 5.616274-21.443957 6.126845-32.165936 1.021141-11.743119-3.063422-22.975668-10.721979-31.655365-7.147986-7.147986-16.848823-10.721978-27.060231-10.721978-12.25369 0-23.486239 4.595134-31.655365 13.27483-9.700838 10.211408-16.338253 22.465098-19.912246 35.739928-4.084563 12.25369-6.637415 25.52852-7.147985 38.292781-0.51057 10.211408 3.063422 19.912246 9.700837 28.081372 7.658556 7.658556 17.869964 11.743119 28.081372 11.232549z m360.462705-173.083367l-11.232549 53.609892h-70.969286l-35.739928 164.914241h-67.905864l35.739928-165.424811h-67.905863l11.232549-53.609892 206.781013 0.51057z" fill="#FF0C00" p-id="11996"></path></svg>