<?xml version="1.0" standalone="no"?><!DOCTYPE svg PUBLIC "-//W3C//DTD SVG 1.1//EN" "http://www.w3.org/Graphics/SVG/1.1/DTD/svg11.dtd"><svg t="1753082440845" class="icon" viewBox="0 0 3555 1024" version="1.1" xmlns="http://www.w3.org/2000/svg" p-id="4435" xmlns:xlink="http://www.w3.org/1999/xlink" width="694.3359375" height="200"><path d="M70.513778 584.448c52.224 0 124.472889 71.765333 118.044444 132.864-6.456889 61.127111 68.664889 22.186667 51.712-64.142222 26.140444 13.767111 101.546667 96.426667 101.063111 191.715555-0.512 97.934222-74.922667 171.377778-186.510222 171.377778-107.832889 0-185.742222-113.578667-142.791111-215.893333 28.302222-67.470222 63.601778-147.2 58.481778-215.893334z m2190.506666-17.436444l-24.860444 117.76c-78.023111 75.605333-152.064 132.323556-222.122667 170.097777 63.715556 20.366222 140.174222 36.352 229.376 47.985778l-22.072889 104.675556c-161.905778-17.436444-292.067556-45.056-390.542222-82.858667-108.487111 37.802667-245.020444 68.323556-409.571555 91.591111l23.893333-113.408c94.72-14.506667 175.274667-31.971556 241.664-52.337778-48.810667-34.901333-92.216889-81.408-130.218667-139.576889h217.315556a1201.834667 1201.834667 0 0 0 87.267555 69.802667 728.547556 728.547556 0 0 0 139.975112-95.971555H1544.334222l24.860445-117.76h691.797333zM2810.709333 0l-30.350222 143.928889h70.968889L2826.524444 261.688889h-70.968888l-5.518223 26.168889c-2.275556 66.901333 2.56 135.224889 14.421334 204.999111l-34.929778 165.745778c-6.428444-11.633778-14.279111-30.520889-23.523556-56.689778-5.802667-14.535111-11.064889-24.746667-15.758222-30.549333l-92.871111 440.547555h-168.533333l77.255111-366.364444c-21.532444 31.971556-58.254222 79.928889-110.165334 143.928889 4.181333-5.831111 0.284444-1.479111-11.662222 13.084444l42.325334-200.647111c63.488-104.675556 114.005333-218.083556 151.580444-340.195556h-70.968889l24.832-117.76h79.843556L2642.204444 0h168.504889z m434.090667 423.082667l-14.705778 69.774222h248.32l-24.803555 117.76H3036.728889l-10.097778 47.985778h368.071111l-42.296889 200.647111c-16.668444 93.041778-73.472 138.126222-170.439111 135.196444h-150.755555l22.983111-109.027555h75.377778c29.582222 0 47.729778-15.985778 54.471111-47.985778l12.885333-61.070222h-212.878222c-39.196444 101.774222-153.315556 180.280889-342.357334 235.52l22.983112-109.027556c105.045333-49.436444 166.542222-130.844444 184.547555-244.252444l10.126222-47.957334h-102.001777l24.832-117.76h243.911111l14.705777-69.802666h204.003556zM2095.815111 4.380444l-11.946667 56.689778h350.350223l-25.742223 122.112h-780.515555l-14.734222 69.802667h93.127111l11.946666-56.718222h177.408l-11.946666 56.718222h195.128889l11.946666-56.718222h177.379556l-11.946667 56.718222h133.034667l-24.832 117.76H2231.466667l-1.848889 8.732444c-19.712 107.576889-78.051556 159.914667-175.018667 157.013334H1646.563556l34.986666-165.745778h-93.155555l-61.610667 292.238222c-26.709333 168.647111-132.551111 284.956444-317.496889 348.928l23.893333-113.408c50.602667-43.605333 83.313778-107.576889 98.133334-191.914667L1467.448889 61.070222h390.257778l11.946666-56.718222h226.161778zM834.133333 771.982222c12.401778 81.408 14.193778 157.013333 5.404445 226.816h-172.970667c7.452444-49.436444 9.728-116.337778 6.826667-200.647111-0.512-11.633778-1.621333-20.337778-3.356445-26.168889h164.096z m-257.223111 0c5.859556 84.337778 4.721778 159.914667-3.470222 226.816h-172.942222c3.185778-19.000889 5.916444-38.4 8.220444-58.254222a261.774222 261.774222 0 0 0 17.92-95.232 279.864889 279.864889 0 0 0-9.329778-71.196444l-0.056888-2.133334h159.658666z m505.571556 0c10.040889 78.506667 13.312 154.112 9.813333 226.816h-172.942222c5.233778-66.901333 6.371556-142.506667 3.470222-226.816h159.658667zM979.171556 0l-22.983112 109.027556h217.315556L1073.208889 584.448c-3.697778 17.464889 0.398222 26.168889 12.231111 26.168889h8.874667c14.791111 0 24.007111-8.704 27.676444-26.168889l13.795556-65.422222h102.001777l-18.403555 87.239111c-16.042667 90.168889-63.658667 133.774222-142.876445 130.844444h-66.531555c-98.787556 5.831111-134.741333-47.957333-107.889778-161.365333L974.791111 231.168h-48.782222c-14.620444 55.239111-30.947556 104.675556-49.009778 148.309333 5.916444 0 12.999111 1.422222 21.248 4.352 11.207111 2.901333 17.976889 5.802667 20.337778 8.732445l-33.109333 157.013333c-7.651556-5.831111-20.906667-13.084444-39.765334-21.816889-15.900444-8.732444-29.44-14.535111-40.675555-17.436444-53.845333 87.239111-147.911111 168.647111-282.083556 244.252444l30.350222-143.928889c44.657778-43.633778 81.066667-90.168889 109.226667-139.576889-5.290667-2.929778-12.373333-4.380444-21.248-4.380444-11.207111-2.901333-19.768889-4.352-25.685333-4.352l25.770666-122.140444c26.595556 0 52.622222 2.929778 77.966223 8.732444 13.283556-34.901333 24.519111-74.154667 33.706666-117.76h-84.252444l25.742222-122.140444h84.280889L801.792 0h177.379556zM597.788444 0l-22.983111 109.027556h84.252445l-26.680889 126.492444H548.124444l-22.983111 109.056a444.615111 444.615111 0 0 0 87.921778-17.464889l-24.832 117.76c-5.916444 0-13.596444 1.479111-23.096889 4.380445-15.985778 5.802667-37.916444 11.633778-65.763555 17.436444l-25.742223 122.140444c-9.955556 63.886222-34.986667 107.776-75.093333 131.669334-24.234667-55.011556-61.127111-102.826667-98.389333-130.133334 1.564444-4.323556 2.645333-9.216 3.271111-14.620444l16.554667-78.506667a2675.968 2675.968 0 0 0-122.481778 13.084445l31.288889-148.309334h119.722666l26.680889-126.492444H259.868444l26.680889-126.492444h115.285334L424.846222 0h172.942222z m2530.787556 196.266667c-4.408889 34.901333-3.982222 61.070222 1.194667 78.506666h88.689777c8.362667-11.633778 18.261333-30.520889 29.696-56.689777 4.778667-8.732444 7.793778-15.985778 9.016889-21.816889h172.942223c-8.448 26.168889-21.361778 52.337778-38.684445 78.506666h124.16l-38.627555 183.182223h-164.096l14.705777-69.774223h-359.196444l-14.734222 69.802667h-164.067556l38.627556-183.182222h128.597333c-5.176889-17.464889-5.575111-43.633778-1.194667-78.506667h172.970667z m-1074.517333 174.478222h-195.128889l-11.036445 52.337778h141.909334c37.831111 2.901333 59.221333-14.535111 64.256-52.337778zM3332.209778 8.732444l-11.036445 52.337778h230.599111l-24.832 117.76h-665.201777l24.832-117.76h226.161777l11.036445-52.337778h208.440889z" fill="#FF0000" p-id="4436"></path></svg>